<mxfile host="app.diagrams.net" agent="Mozilla/5.0 (Windows NT 10.0; Win64; x64) AppleWebKit/537.36 (KHTML, like Gecko) Chrome/133.0.0.0 Safari/537.36" version="26.1.0">
  <diagram name="Page-1" id="BDU2GEYCwSGdxIi3O92k">
    <mxGraphModel dx="1927" dy="543" grid="1" gridSize="10" guides="1" tooltips="1" connect="1" arrows="1" fold="1" page="1" pageScale="1" pageWidth="827" pageHeight="1169" math="0" shadow="0">
      <root>
        <mxCell id="0" />
        <mxCell id="1" parent="0" />
        <mxCell id="JSU8qZqLGz52yNF-gvgQ-1" value="&lt;i&gt;&lt;b&gt;&lt;font style=&quot;font-size: 10px;&quot;&gt;Sales Office&lt;/font&gt;&lt;/b&gt;&lt;/i&gt;" style="whiteSpace=wrap;html=1;align=center;" vertex="1" parent="1">
          <mxGeometry x="70" y="120" width="100" height="40" as="geometry" />
        </mxCell>
        <mxCell id="JSU8qZqLGz52yNF-gvgQ-2" value="&lt;b&gt;&lt;i&gt;&lt;font style=&quot;font-size: 10px;&quot;&gt;Number&lt;/font&gt;&lt;/i&gt;&lt;/b&gt;" style="ellipse;whiteSpace=wrap;html=1;align=center;fontStyle=4;" vertex="1" parent="1">
          <mxGeometry x="140" y="20" width="80" height="40" as="geometry" />
        </mxCell>
        <mxCell id="JSU8qZqLGz52yNF-gvgQ-3" value="&lt;font style=&quot;font-size: 10px;&quot;&gt;&lt;i&gt;&lt;b&gt;Location&lt;/b&gt;&lt;/i&gt;&lt;/font&gt;" style="ellipse;whiteSpace=wrap;html=1;align=center;" vertex="1" parent="1">
          <mxGeometry x="10" y="30" width="80" height="40" as="geometry" />
        </mxCell>
        <mxCell id="JSU8qZqLGz52yNF-gvgQ-4" value="" style="endArrow=none;html=1;rounded=0;exitX=0.5;exitY=1;exitDx=0;exitDy=0;entryX=0.75;entryY=0;entryDx=0;entryDy=0;" edge="1" parent="1" source="JSU8qZqLGz52yNF-gvgQ-2" target="JSU8qZqLGz52yNF-gvgQ-1">
          <mxGeometry relative="1" as="geometry">
            <mxPoint x="330" y="230" as="sourcePoint" />
            <mxPoint x="490" y="230" as="targetPoint" />
          </mxGeometry>
        </mxCell>
        <mxCell id="JSU8qZqLGz52yNF-gvgQ-5" value="" style="endArrow=none;html=1;rounded=0;exitX=0.688;exitY=1;exitDx=0;exitDy=0;exitPerimeter=0;entryX=0.16;entryY=0;entryDx=0;entryDy=0;entryPerimeter=0;" edge="1" parent="1" source="JSU8qZqLGz52yNF-gvgQ-3" target="JSU8qZqLGz52yNF-gvgQ-1">
          <mxGeometry relative="1" as="geometry">
            <mxPoint x="330" y="230" as="sourcePoint" />
            <mxPoint x="490" y="230" as="targetPoint" />
          </mxGeometry>
        </mxCell>
        <mxCell id="JSU8qZqLGz52yNF-gvgQ-6" value="&lt;i style=&quot;&quot;&gt;&lt;font style=&quot;font-size: 10px;&quot;&gt;&lt;b&gt;Employee&lt;/b&gt;&lt;/font&gt;&lt;/i&gt;" style="whiteSpace=wrap;html=1;align=center;" vertex="1" parent="1">
          <mxGeometry x="570" y="120" width="100" height="40" as="geometry" />
        </mxCell>
        <mxCell id="JSU8qZqLGz52yNF-gvgQ-7" value="&lt;b&gt;&lt;i&gt;&lt;font style=&quot;font-size: 10px;&quot;&gt;ID&lt;/font&gt;&lt;/i&gt;&lt;/b&gt;" style="ellipse;whiteSpace=wrap;html=1;align=center;fontStyle=4;" vertex="1" parent="1">
          <mxGeometry x="690" y="30" width="90" height="40" as="geometry" />
        </mxCell>
        <mxCell id="JSU8qZqLGz52yNF-gvgQ-8" value="&lt;i style=&quot;&quot;&gt;&lt;b&gt;&lt;font style=&quot;font-size: 10px;&quot;&gt;Name&lt;/font&gt;&lt;/b&gt;&lt;/i&gt;" style="ellipse;whiteSpace=wrap;html=1;align=center;" vertex="1" parent="1">
          <mxGeometry x="580" y="30" width="80" height="40" as="geometry" />
        </mxCell>
        <mxCell id="JSU8qZqLGz52yNF-gvgQ-9" value="" style="endArrow=none;html=1;rounded=0;entryX=0.3;entryY=1.025;entryDx=0;entryDy=0;entryPerimeter=0;exitX=1;exitY=0;exitDx=0;exitDy=0;" edge="1" parent="1" source="JSU8qZqLGz52yNF-gvgQ-6" target="JSU8qZqLGz52yNF-gvgQ-7">
          <mxGeometry relative="1" as="geometry">
            <mxPoint x="330" y="230" as="sourcePoint" />
            <mxPoint x="490" y="230" as="targetPoint" />
          </mxGeometry>
        </mxCell>
        <mxCell id="JSU8qZqLGz52yNF-gvgQ-10" value="" style="endArrow=none;html=1;rounded=0;entryX=0.5;entryY=1;entryDx=0;entryDy=0;exitX=0.5;exitY=0;exitDx=0;exitDy=0;" edge="1" parent="1" source="JSU8qZqLGz52yNF-gvgQ-6" target="JSU8qZqLGz52yNF-gvgQ-8">
          <mxGeometry relative="1" as="geometry">
            <mxPoint x="330" y="230" as="sourcePoint" />
            <mxPoint x="490" y="230" as="targetPoint" />
          </mxGeometry>
        </mxCell>
        <mxCell id="JSU8qZqLGz52yNF-gvgQ-11" value="&lt;b&gt;&lt;i&gt;&lt;font style=&quot;font-size: 10px;&quot;&gt;Prosperity&lt;/font&gt;&lt;/i&gt;&lt;/b&gt;" style="whiteSpace=wrap;html=1;align=center;" vertex="1" parent="1">
          <mxGeometry x="70" y="436" width="100" height="40" as="geometry" />
        </mxCell>
        <mxCell id="JSU8qZqLGz52yNF-gvgQ-12" value="&lt;b&gt;&lt;i&gt;&lt;font style=&quot;font-size: 10px;&quot;&gt;ID&lt;/font&gt;&lt;/i&gt;&lt;/b&gt;" style="ellipse;whiteSpace=wrap;html=1;align=center;fontStyle=4;" vertex="1" parent="1">
          <mxGeometry x="-70" y="426" width="70" height="40" as="geometry" />
        </mxCell>
        <mxCell id="JSU8qZqLGz52yNF-gvgQ-13" value="&lt;b&gt;&lt;i&gt;&lt;font style=&quot;font-size: 10px;&quot;&gt;Location&lt;/font&gt;&lt;/i&gt;&lt;/b&gt;" style="ellipse;whiteSpace=wrap;html=1;align=center;" vertex="1" parent="1">
          <mxGeometry x="-30" y="516" width="80" height="40" as="geometry" />
        </mxCell>
        <mxCell id="JSU8qZqLGz52yNF-gvgQ-14" value="" style="endArrow=none;html=1;rounded=0;exitX=1;exitY=0.5;exitDx=0;exitDy=0;entryX=0;entryY=0.5;entryDx=0;entryDy=0;" edge="1" parent="1" source="JSU8qZqLGz52yNF-gvgQ-12" target="JSU8qZqLGz52yNF-gvgQ-11">
          <mxGeometry relative="1" as="geometry">
            <mxPoint x="230" y="336" as="sourcePoint" />
            <mxPoint x="390" y="336" as="targetPoint" />
          </mxGeometry>
        </mxCell>
        <mxCell id="JSU8qZqLGz52yNF-gvgQ-15" value="" style="endArrow=none;html=1;rounded=0;exitX=1;exitY=0;exitDx=0;exitDy=0;entryX=0.13;entryY=1.025;entryDx=0;entryDy=0;entryPerimeter=0;" edge="1" parent="1" source="JSU8qZqLGz52yNF-gvgQ-13" target="JSU8qZqLGz52yNF-gvgQ-11">
          <mxGeometry relative="1" as="geometry">
            <mxPoint x="230" y="336" as="sourcePoint" />
            <mxPoint x="390" y="336" as="targetPoint" />
          </mxGeometry>
        </mxCell>
        <mxCell id="JSU8qZqLGz52yNF-gvgQ-16" value="&lt;font style=&quot;font-size: 10px;&quot;&gt;&lt;b&gt;&lt;i&gt;City&lt;/i&gt;&lt;/b&gt;&lt;/font&gt;" style="ellipse;whiteSpace=wrap;html=1;align=center;" vertex="1" parent="1">
          <mxGeometry x="-140" y="546" width="70" height="40" as="geometry" />
        </mxCell>
        <mxCell id="JSU8qZqLGz52yNF-gvgQ-17" value="&lt;b&gt;&lt;i&gt;&lt;font style=&quot;font-size: 10px;&quot;&gt;State&lt;/font&gt;&lt;/i&gt;&lt;/b&gt;" style="ellipse;whiteSpace=wrap;html=1;align=center;" vertex="1" parent="1">
          <mxGeometry x="-60" y="596" width="70" height="40" as="geometry" />
        </mxCell>
        <mxCell id="JSU8qZqLGz52yNF-gvgQ-18" value="&lt;b&gt;&lt;i&gt;&lt;font style=&quot;font-size: 10px;&quot;&gt;Zip_Code&lt;/font&gt;&lt;/i&gt;&lt;/b&gt;" style="ellipse;whiteSpace=wrap;html=1;align=center;" vertex="1" parent="1">
          <mxGeometry x="40" y="586" width="70" height="40" as="geometry" />
        </mxCell>
        <mxCell id="JSU8qZqLGz52yNF-gvgQ-19" value="" style="endArrow=none;html=1;rounded=0;exitX=0.986;exitY=0.275;exitDx=0;exitDy=0;exitPerimeter=0;" edge="1" parent="1" source="JSU8qZqLGz52yNF-gvgQ-16" target="JSU8qZqLGz52yNF-gvgQ-13">
          <mxGeometry relative="1" as="geometry">
            <mxPoint x="140" y="486" as="sourcePoint" />
            <mxPoint x="300" y="486" as="targetPoint" />
          </mxGeometry>
        </mxCell>
        <mxCell id="JSU8qZqLGz52yNF-gvgQ-21" value="" style="endArrow=none;html=1;rounded=0;exitX=1;exitY=0;exitDx=0;exitDy=0;entryX=0.4;entryY=0.975;entryDx=0;entryDy=0;entryPerimeter=0;" edge="1" parent="1" source="JSU8qZqLGz52yNF-gvgQ-17" target="JSU8qZqLGz52yNF-gvgQ-13">
          <mxGeometry relative="1" as="geometry">
            <mxPoint x="140" y="576" as="sourcePoint" />
            <mxPoint x="300" y="576" as="targetPoint" />
          </mxGeometry>
        </mxCell>
        <mxCell id="JSU8qZqLGz52yNF-gvgQ-22" value="" style="endArrow=none;html=1;rounded=0;exitX=0.386;exitY=0.025;exitDx=0;exitDy=0;exitPerimeter=0;entryX=1;entryY=1;entryDx=0;entryDy=0;" edge="1" parent="1" source="JSU8qZqLGz52yNF-gvgQ-18" target="JSU8qZqLGz52yNF-gvgQ-13">
          <mxGeometry relative="1" as="geometry">
            <mxPoint x="140" y="576" as="sourcePoint" />
            <mxPoint x="300" y="576" as="targetPoint" />
          </mxGeometry>
        </mxCell>
        <mxCell id="JSU8qZqLGz52yNF-gvgQ-23" value="&lt;b&gt;&lt;i&gt;&lt;font style=&quot;font-size: 10px;&quot;&gt;Owner&lt;/font&gt;&lt;/i&gt;&lt;/b&gt;" style="whiteSpace=wrap;html=1;align=center;" vertex="1" parent="1">
          <mxGeometry x="560" y="370" width="100" height="40" as="geometry" />
        </mxCell>
        <mxCell id="JSU8qZqLGz52yNF-gvgQ-24" value="&lt;b&gt;&lt;i&gt;&lt;font style=&quot;font-size: 10px;&quot;&gt;ID&lt;/font&gt;&lt;/i&gt;&lt;/b&gt;" style="ellipse;whiteSpace=wrap;html=1;align=center;fontStyle=4;" vertex="1" parent="1">
          <mxGeometry x="690" y="460" width="70" height="40" as="geometry" />
        </mxCell>
        <mxCell id="JSU8qZqLGz52yNF-gvgQ-25" value="&lt;i&gt;&lt;b&gt;&lt;font style=&quot;font-size: 10px;&quot;&gt;Name&lt;/font&gt;&lt;/b&gt;&lt;/i&gt;" style="ellipse;whiteSpace=wrap;html=1;align=center;" vertex="1" parent="1">
          <mxGeometry x="550" y="480" width="70" height="40" as="geometry" />
        </mxCell>
        <mxCell id="JSU8qZqLGz52yNF-gvgQ-26" value="" style="endArrow=none;html=1;rounded=0;exitX=0.6;exitY=-0.025;exitDx=0;exitDy=0;exitPerimeter=0;entryX=0.5;entryY=1;entryDx=0;entryDy=0;" edge="1" parent="1" source="JSU8qZqLGz52yNF-gvgQ-25" target="JSU8qZqLGz52yNF-gvgQ-23">
          <mxGeometry relative="1" as="geometry">
            <mxPoint x="400" y="300" as="sourcePoint" />
            <mxPoint x="560" y="300" as="targetPoint" />
          </mxGeometry>
        </mxCell>
        <mxCell id="JSU8qZqLGz52yNF-gvgQ-27" value="" style="endArrow=none;html=1;rounded=0;" edge="1" parent="1" source="JSU8qZqLGz52yNF-gvgQ-24">
          <mxGeometry relative="1" as="geometry">
            <mxPoint x="400" y="300" as="sourcePoint" />
            <mxPoint x="660" y="410" as="targetPoint" />
          </mxGeometry>
        </mxCell>
        <mxCell id="JSU8qZqLGz52yNF-gvgQ-28" value="&lt;b&gt;&lt;i&gt;&lt;font style=&quot;font-size: 10px;&quot;&gt;Address&lt;/font&gt;&lt;/i&gt;&lt;/b&gt;" style="ellipse;whiteSpace=wrap;html=1;align=center;" vertex="1" parent="1">
          <mxGeometry x="110" y="526" width="80" height="40" as="geometry" />
        </mxCell>
        <mxCell id="JSU8qZqLGz52yNF-gvgQ-29" value="" style="endArrow=none;html=1;rounded=0;exitX=1;exitY=0.5;exitDx=0;exitDy=0;entryX=0;entryY=0.5;entryDx=0;entryDy=0;" edge="1" parent="1" source="JSU8qZqLGz52yNF-gvgQ-13" target="JSU8qZqLGz52yNF-gvgQ-28">
          <mxGeometry relative="1" as="geometry">
            <mxPoint x="220" y="426" as="sourcePoint" />
            <mxPoint x="380" y="426" as="targetPoint" />
          </mxGeometry>
        </mxCell>
        <mxCell id="JSU8qZqLGz52yNF-gvgQ-30" value="&lt;b&gt;&lt;i&gt;&lt;font style=&quot;font-size: 10px;&quot;&gt;Assigned&lt;/font&gt;&lt;/i&gt;&lt;/b&gt;" style="shape=rhombus;perimeter=rhombusPerimeter;whiteSpace=wrap;html=1;align=center;" vertex="1" parent="1">
          <mxGeometry x="350" y="80" width="80" height="50" as="geometry" />
        </mxCell>
        <mxCell id="JSU8qZqLGz52yNF-gvgQ-31" value="" style="endArrow=none;html=1;rounded=0;entryX=0;entryY=0.5;entryDx=0;entryDy=0;exitX=1;exitY=0.5;exitDx=0;exitDy=0;" edge="1" parent="1" source="JSU8qZqLGz52yNF-gvgQ-30" target="JSU8qZqLGz52yNF-gvgQ-6">
          <mxGeometry relative="1" as="geometry">
            <mxPoint x="240" y="220" as="sourcePoint" />
            <mxPoint x="400" y="220" as="targetPoint" />
          </mxGeometry>
        </mxCell>
        <mxCell id="JSU8qZqLGz52yNF-gvgQ-32" value="M" style="text;strokeColor=none;align=center;fillColor=none;html=1;verticalAlign=middle;whiteSpace=wrap;rounded=0;" vertex="1" parent="1">
          <mxGeometry x="520" y="95" width="30" height="20" as="geometry" />
        </mxCell>
        <mxCell id="JSU8qZqLGz52yNF-gvgQ-33" value="" style="endArrow=none;html=1;rounded=0;exitX=1;exitY=0.5;exitDx=0;exitDy=0;" edge="1" parent="1" source="JSU8qZqLGz52yNF-gvgQ-1" target="JSU8qZqLGz52yNF-gvgQ-30">
          <mxGeometry relative="1" as="geometry">
            <mxPoint x="240" y="220" as="sourcePoint" />
            <mxPoint x="400" y="220" as="targetPoint" />
          </mxGeometry>
        </mxCell>
        <mxCell id="JSU8qZqLGz52yNF-gvgQ-34" value="1" style="text;strokeColor=none;align=center;fillColor=none;html=1;verticalAlign=middle;whiteSpace=wrap;rounded=0;" vertex="1" parent="1">
          <mxGeometry x="180" y="110" width="30" height="20" as="geometry" />
        </mxCell>
        <mxCell id="JSU8qZqLGz52yNF-gvgQ-35" value="" style="endArrow=none;html=1;rounded=0;exitX=1;exitY=0.75;exitDx=0;exitDy=0;entryX=0.15;entryY=0.66;entryDx=0;entryDy=0;entryPerimeter=0;" edge="1" parent="1" source="JSU8qZqLGz52yNF-gvgQ-1" target="JSU8qZqLGz52yNF-gvgQ-30">
          <mxGeometry relative="1" as="geometry">
            <mxPoint x="180" y="150" as="sourcePoint" />
            <mxPoint x="360" y="150" as="targetPoint" />
          </mxGeometry>
        </mxCell>
        <mxCell id="JSU8qZqLGz52yNF-gvgQ-37" value="" style="endArrow=none;html=1;rounded=0;entryX=0;entryY=0.25;entryDx=0;entryDy=0;exitX=0.888;exitY=0.36;exitDx=0;exitDy=0;exitPerimeter=0;" edge="1" parent="1" source="JSU8qZqLGz52yNF-gvgQ-30" target="JSU8qZqLGz52yNF-gvgQ-6">
          <mxGeometry relative="1" as="geometry">
            <mxPoint x="240" y="220" as="sourcePoint" />
            <mxPoint x="400" y="220" as="targetPoint" />
          </mxGeometry>
        </mxCell>
        <mxCell id="JSU8qZqLGz52yNF-gvgQ-38" value="&lt;b&gt;&lt;i&gt;&lt;font style=&quot;font-size: 10px;&quot;&gt;Manage&lt;/font&gt;&lt;/i&gt;&lt;/b&gt;" style="shape=rhombus;perimeter=rhombusPerimeter;whiteSpace=wrap;html=1;align=center;" vertex="1" parent="1">
          <mxGeometry x="340" y="180" width="90" height="50" as="geometry" />
        </mxCell>
        <mxCell id="JSU8qZqLGz52yNF-gvgQ-39" value="" style="endArrow=none;html=1;rounded=0;exitX=1;exitY=1;exitDx=0;exitDy=0;entryX=0;entryY=0.5;entryDx=0;entryDy=0;" edge="1" parent="1" source="JSU8qZqLGz52yNF-gvgQ-1" target="JSU8qZqLGz52yNF-gvgQ-38">
          <mxGeometry relative="1" as="geometry">
            <mxPoint x="240" y="220" as="sourcePoint" />
            <mxPoint x="400" y="220" as="targetPoint" />
          </mxGeometry>
        </mxCell>
        <mxCell id="JSU8qZqLGz52yNF-gvgQ-41" value="1" style="text;strokeColor=none;align=center;fillColor=none;html=1;verticalAlign=middle;whiteSpace=wrap;rounded=0;" vertex="1" parent="1">
          <mxGeometry x="520" y="140" width="30" height="20" as="geometry" />
        </mxCell>
        <mxCell id="JSU8qZqLGz52yNF-gvgQ-43" value="1" style="text;strokeColor=none;align=center;fillColor=none;html=1;verticalAlign=middle;whiteSpace=wrap;rounded=0;" vertex="1" parent="1">
          <mxGeometry x="170" y="170" width="30" height="20" as="geometry" />
        </mxCell>
        <mxCell id="JSU8qZqLGz52yNF-gvgQ-44" value="" style="endArrow=none;html=1;rounded=0;entryX=0;entryY=1;entryDx=0;entryDy=0;exitX=1;exitY=0.5;exitDx=0;exitDy=0;" edge="1" parent="1" source="JSU8qZqLGz52yNF-gvgQ-38" target="JSU8qZqLGz52yNF-gvgQ-6">
          <mxGeometry relative="1" as="geometry">
            <mxPoint x="240" y="220" as="sourcePoint" />
            <mxPoint x="400" y="220" as="targetPoint" />
          </mxGeometry>
        </mxCell>
        <mxCell id="JSU8qZqLGz52yNF-gvgQ-45" value="" style="endArrow=none;html=1;rounded=0;" edge="1" parent="1">
          <mxGeometry relative="1" as="geometry">
            <mxPoint x="170" y="150" as="sourcePoint" />
            <mxPoint x="350" y="200" as="targetPoint" />
          </mxGeometry>
        </mxCell>
        <mxCell id="JSU8qZqLGz52yNF-gvgQ-46" value="&lt;b&gt;&lt;i&gt;&lt;font style=&quot;font-size: 10px;&quot;&gt;Listed&lt;/font&gt;&lt;/i&gt;&lt;/b&gt;" style="shape=rhombus;perimeter=rhombusPerimeter;whiteSpace=wrap;html=1;align=center;" vertex="1" parent="1">
          <mxGeometry x="80" y="267" width="80" height="50" as="geometry" />
        </mxCell>
        <mxCell id="JSU8qZqLGz52yNF-gvgQ-47" value="" style="endArrow=none;html=1;rounded=0;exitX=0.5;exitY=1;exitDx=0;exitDy=0;entryX=0.5;entryY=0;entryDx=0;entryDy=0;" edge="1" parent="1" source="JSU8qZqLGz52yNF-gvgQ-1" target="JSU8qZqLGz52yNF-gvgQ-46">
          <mxGeometry relative="1" as="geometry">
            <mxPoint x="130" y="280" as="sourcePoint" />
            <mxPoint x="290" y="280" as="targetPoint" />
          </mxGeometry>
        </mxCell>
        <mxCell id="JSU8qZqLGz52yNF-gvgQ-48" value="1" style="text;strokeColor=none;align=center;fillColor=none;html=1;verticalAlign=middle;whiteSpace=wrap;rounded=0;" vertex="1" parent="1">
          <mxGeometry x="80" y="170" width="30" height="20" as="geometry" />
        </mxCell>
        <mxCell id="JSU8qZqLGz52yNF-gvgQ-49" value="" style="endArrow=none;html=1;rounded=0;exitX=0.5;exitY=0;exitDx=0;exitDy=0;entryX=0.5;entryY=1;entryDx=0;entryDy=0;" edge="1" parent="1" source="JSU8qZqLGz52yNF-gvgQ-11" target="JSU8qZqLGz52yNF-gvgQ-46">
          <mxGeometry relative="1" as="geometry">
            <mxPoint x="130" y="280" as="sourcePoint" />
            <mxPoint x="290" y="280" as="targetPoint" />
          </mxGeometry>
        </mxCell>
        <mxCell id="JSU8qZqLGz52yNF-gvgQ-50" value="" style="endArrow=none;html=1;rounded=0;entryX=0.6;entryY=0.9;entryDx=0;entryDy=0;entryPerimeter=0;" edge="1" parent="1" target="JSU8qZqLGz52yNF-gvgQ-46">
          <mxGeometry relative="1" as="geometry">
            <mxPoint x="128" y="438" as="sourcePoint" />
            <mxPoint x="290" y="280" as="targetPoint" />
          </mxGeometry>
        </mxCell>
        <mxCell id="JSU8qZqLGz52yNF-gvgQ-51" value="&lt;i style=&quot;&quot;&gt;&lt;b&gt;&lt;font style=&quot;font-size: 10px;&quot;&gt;M&lt;/font&gt;&lt;/b&gt;&lt;/i&gt;" style="text;strokeColor=none;align=center;fillColor=none;html=1;verticalAlign=middle;whiteSpace=wrap;rounded=0;" vertex="1" parent="1">
          <mxGeometry x="135" y="400" width="30" height="20" as="geometry" />
        </mxCell>
        <mxCell id="JSU8qZqLGz52yNF-gvgQ-52" value="&lt;b&gt;&lt;i&gt;&lt;font style=&quot;font-size: 10px;&quot;&gt;Has&lt;/font&gt;&lt;/i&gt;&lt;/b&gt;" style="shape=rhombus;perimeter=rhombusPerimeter;whiteSpace=wrap;html=1;align=center;" vertex="1" parent="1">
          <mxGeometry x="330" y="376" width="120" height="60" as="geometry" />
        </mxCell>
        <mxCell id="JSU8qZqLGz52yNF-gvgQ-54" value="" style="endArrow=none;html=1;rounded=0;exitX=1;exitY=0.5;exitDx=0;exitDy=0;entryX=0;entryY=0.5;entryDx=0;entryDy=0;" edge="1" parent="1" source="JSU8qZqLGz52yNF-gvgQ-11" target="JSU8qZqLGz52yNF-gvgQ-52">
          <mxGeometry relative="1" as="geometry">
            <mxPoint x="230" y="480" as="sourcePoint" />
            <mxPoint x="390" y="480" as="targetPoint" />
          </mxGeometry>
        </mxCell>
        <mxCell id="JSU8qZqLGz52yNF-gvgQ-55" value="" style="endArrow=none;html=1;rounded=0;entryX=0;entryY=0.5;entryDx=0;entryDy=0;" edge="1" parent="1" source="JSU8qZqLGz52yNF-gvgQ-52" target="JSU8qZqLGz52yNF-gvgQ-23">
          <mxGeometry relative="1" as="geometry">
            <mxPoint x="230" y="480" as="sourcePoint" />
            <mxPoint x="390" y="480" as="targetPoint" />
          </mxGeometry>
        </mxCell>
        <mxCell id="JSU8qZqLGz52yNF-gvgQ-56" value="&lt;i&gt;&lt;b&gt;&lt;font style=&quot;font-size: 10px;&quot;&gt;M&lt;/font&gt;&lt;/b&gt;&lt;/i&gt;" style="text;strokeColor=none;align=center;fillColor=none;html=1;verticalAlign=middle;whiteSpace=wrap;rounded=0;" vertex="1" parent="1">
          <mxGeometry x="500" y="370" width="20" height="20" as="geometry" />
        </mxCell>
        <mxCell id="JSU8qZqLGz52yNF-gvgQ-57" value="&lt;i&gt;&lt;b&gt;&lt;font style=&quot;font-size: 10px;&quot;&gt;M&lt;/font&gt;&lt;/b&gt;&lt;/i&gt;" style="text;strokeColor=none;align=center;fillColor=none;html=1;verticalAlign=middle;whiteSpace=wrap;rounded=0;" vertex="1" parent="1">
          <mxGeometry x="185" y="456" width="20" height="20" as="geometry" />
        </mxCell>
        <mxCell id="JSU8qZqLGz52yNF-gvgQ-58" value="&lt;b&gt;&lt;i&gt;&lt;font style=&quot;font-size: 10px;&quot;&gt;percent&lt;/font&gt;&lt;/i&gt;&lt;/b&gt;" style="ellipse;whiteSpace=wrap;html=1;align=center;" vertex="1" parent="1">
          <mxGeometry x="310" y="436" width="80" height="40" as="geometry" />
        </mxCell>
        <mxCell id="JSU8qZqLGz52yNF-gvgQ-59" value="" style="endArrow=none;html=1;rounded=0;entryX=0.5;entryY=1;entryDx=0;entryDy=0;exitX=1;exitY=0;exitDx=0;exitDy=0;" edge="1" parent="1" source="JSU8qZqLGz52yNF-gvgQ-58" target="JSU8qZqLGz52yNF-gvgQ-52">
          <mxGeometry relative="1" as="geometry">
            <mxPoint x="230" y="480" as="sourcePoint" />
            <mxPoint x="390" y="480" as="targetPoint" />
          </mxGeometry>
        </mxCell>
      </root>
    </mxGraphModel>
  </diagram>
</mxfile>
